# xmcd CD database file
#
# Track frame offsets:
#	150
#	16673
#	37530
#	61855
#	91430
#	123777
#	148423
#	172086
#
# Disc length: 2507 seconds
#
# Revision: 0
# Processed by: cddbd v1.5PL3 Copyright (c) Steve Scherf et al.
# Submitted via: CDex 1.51
#
DISCID=5e09c908
DTITLE=藤井フミヤ - Lady Sister Baby
DYEAR=2003
DGENRE=JPop
TTITLE0=In your heart
TTITLE1=HAKOBUNE(Liquorice Migraine Dub Mix)
TTITLE2=Baby
TTITLE3=ZERO
TTITLE4=ANGEL(Dmt Version)
TTITLE5=This Magic Moment
TTITLE6=LADY SISTER BABY
TTITLE7=EROTIC
EXTD=YEAR: 2003
EXTT0=
EXTT1=
EXTT2=
EXTT3=
EXTT4=
EXTT5=
EXTT6=
EXTT7=
PLAYORDER=
